<svg xmlns="http://www.w3.org/2000/svg" viewBox="0 0 1924 1084"><defs><style>.cls-1{fill:none;stroke:#fff;stroke-miterlimit:10;stroke-width:4px;}</style></defs><g id="레이어_2" data-name="레이어 2"><g id="레이어_1-2" data-name="레이어 1"><rect class="cls-1" x="2" y="2" width="120" height="120"/><rect class="cls-1" x="122" y="2" width="120" height="120"/><rect class="cls-1" x="242" y="2" width="120" height="120"/><rect class="cls-1" x="362" y="2" width="120" height="120"/><rect class="cls-1" x="482" y="2" width="120" height="120"/><rect class="cls-1" x="602" y="2" width="120" height="120"/><rect class="cls-1" x="722" y="2" width="120" height="120"/><rect class="cls-1" x="842" y="2" width="120" height="120"/><rect class="cls-1" x="962" y="2" width="120" height="120"/><rect class="cls-1" x="1082" y="2" width="120" height="120"/><rect class="cls-1" x="1202" y="2" width="120" height="120"/><rect class="cls-1" x="1322" y="2" width="120" height="120"/><rect class="cls-1" x="1442" y="2" width="120" height="120"/><rect class="cls-1" x="1562" y="2" width="120" height="120"/><rect class="cls-1" x="1682" y="2" width="120" height="120"/><rect class="cls-1" x="1802" y="2" width="120" height="120"/><rect class="cls-1" x="2" y="122" width="120" height="120"/><rect class="cls-1" x="122" y="122" width="120" height="120"/><rect class="cls-1" x="242" y="122" width="120" height="120"/><rect class="cls-1" x="362" y="122" width="120" height="120"/><rect class="cls-1" x="482" y="122" width="120" height="120"/><rect class="cls-1" x="602" y="122" width="120" height="120"/><rect class="cls-1" x="722" y="122" width="120" height="120"/><rect class="cls-1" x="842" y="122" width="120" height="120"/><rect class="cls-1" x="962" y="122" width="120" height="120"/><rect class="cls-1" x="1082" y="122" width="120" height="120"/><rect class="cls-1" x="1202" y="122" width="120" height="120"/><rect class="cls-1" x="1322" y="122" width="120" height="120"/><rect class="cls-1" x="1442" y="122" width="120" height="120"/><rect class="cls-1" x="1562" y="122" width="120" height="120"/><rect class="cls-1" x="1682" y="122" width="120" height="120"/><rect class="cls-1" x="1802" y="122" width="120" height="120"/><rect class="cls-1" x="2" y="242" width="120" height="120"/><rect class="cls-1" x="122" y="242" width="120" height="120"/><rect class="cls-1" x="242" y="242" width="120" height="120"/><rect class="cls-1" x="362" y="242" width="120" height="120"/><rect class="cls-1" x="482" y="242" width="120" height="120"/><rect class="cls-1" x="602" y="242" width="120" height="120"/><rect class="cls-1" x="722" y="242" width="120" height="120"/><rect class="cls-1" x="842" y="242" width="120" height="120"/><rect class="cls-1" x="962" y="242" width="120" height="120"/><rect class="cls-1" x="1082" y="242" width="120" height="120"/><rect class="cls-1" x="1202" y="242" width="120" height="120"/><rect class="cls-1" x="1322" y="242" width="120" height="120"/><rect class="cls-1" x="1442" y="242" width="120" height="120"/><rect class="cls-1" x="1562" y="242" width="120" height="120"/><rect class="cls-1" x="1682" y="242" width="120" height="120"/><rect class="cls-1" x="1802" y="242" width="120" height="120"/><rect class="cls-1" x="2" y="362" width="120" height="120"/><rect class="cls-1" x="122" y="362" width="120" height="120"/><rect class="cls-1" x="242" y="362" width="120" height="120"/><rect class="cls-1" x="362" y="362" width="120" height="120"/><rect class="cls-1" x="482" y="362" width="120" height="120"/><rect class="cls-1" x="602" y="362" width="120" height="120"/><rect class="cls-1" x="722" y="362" width="120" height="120"/><rect class="cls-1" x="842" y="362" width="120" height="120"/><rect class="cls-1" x="962" y="362" width="120" height="120"/><rect class="cls-1" x="1082" y="362" width="120" height="120"/><rect class="cls-1" x="1202" y="362" width="120" height="120"/><rect class="cls-1" x="1322" y="362" width="120" height="120"/><rect class="cls-1" x="1442" y="362" width="120" height="120"/><rect class="cls-1" x="1562" y="362" width="120" height="120"/><rect class="cls-1" x="1682" y="362" width="120" height="120"/><rect class="cls-1" x="1802" y="362" width="120" height="120"/><rect class="cls-1" x="2" y="482" width="120" height="120"/><rect class="cls-1" x="122" y="482" width="120" height="120"/><rect class="cls-1" x="242" y="482" width="120" height="120"/><rect class="cls-1" x="362" y="482" width="120" height="120"/><rect class="cls-1" x="482" y="482" width="120" height="120"/><rect class="cls-1" x="602" y="482" width="120" height="120"/><rect class="cls-1" x="722" y="482" width="120" height="120"/><rect class="cls-1" x="842" y="482" width="120" height="120"/><rect class="cls-1" x="962" y="482" width="120" height="120"/><rect class="cls-1" x="1082" y="482" width="120" height="120"/><rect class="cls-1" x="1202" y="482" width="120" height="120"/><rect class="cls-1" x="1322" y="482" width="120" height="120"/><rect class="cls-1" x="1442" y="482" width="120" height="120"/><rect class="cls-1" x="1562" y="482" width="120" height="120"/><rect class="cls-1" x="1682" y="482" width="120" height="120"/><rect class="cls-1" x="1802" y="482" width="120" height="120"/><rect class="cls-1" x="2" y="602" width="120" height="120"/><rect class="cls-1" x="122" y="602" width="120" height="120"/><rect class="cls-1" x="242" y="602" width="120" height="120"/><rect class="cls-1" x="362" y="602" width="120" height="120"/><rect class="cls-1" x="482" y="602" width="120" height="120"/><rect class="cls-1" x="602" y="602" width="120" height="120"/><rect class="cls-1" x="722" y="602" width="120" height="120"/><rect class="cls-1" x="842" y="602" width="120" height="120"/><rect class="cls-1" x="962" y="602" width="120" height="120"/><rect class="cls-1" x="1082" y="602" width="120" height="120"/><rect class="cls-1" x="1202" y="602" width="120" height="120"/><rect class="cls-1" x="1322" y="602" width="120" height="120"/><rect class="cls-1" x="1442" y="602" width="120" height="120"/><rect class="cls-1" x="1562" y="602" width="120" height="120"/><rect class="cls-1" x="1682" y="602" width="120" height="120"/><rect class="cls-1" x="1802" y="602" width="120" height="120"/><rect class="cls-1" x="2" y="722" width="120" height="120"/><rect class="cls-1" x="122" y="722" width="120" height="120"/><rect class="cls-1" x="242" y="722" width="120" height="120"/><rect class="cls-1" x="362" y="722" width="120" height="120"/><rect class="cls-1" x="482" y="722" width="120" height="120"/><rect class="cls-1" x="602" y="722" width="120" height="120"/><rect class="cls-1" x="722" y="722" width="120" height="120"/><rect class="cls-1" x="842" y="722" width="120" height="120"/><rect class="cls-1" x="962" y="722" width="120" height="120"/><rect class="cls-1" x="1082" y="722" width="120" height="120"/><rect class="cls-1" x="1202" y="722" width="120" height="120"/><rect class="cls-1" x="1322" y="722" width="120" height="120"/><rect class="cls-1" x="1442" y="722" width="120" height="120"/><rect class="cls-1" x="1562" y="722" width="120" height="120"/><rect class="cls-1" x="1682" y="722" width="120" height="120"/><rect class="cls-1" x="1802" y="722" width="120" height="120"/><rect class="cls-1" x="2" y="842" width="120" height="120"/><rect class="cls-1" x="122" y="842" width="120" height="120"/><rect class="cls-1" x="242" y="842" width="120" height="120"/><rect class="cls-1" x="362" y="842" width="120" height="120"/><rect class="cls-1" x="482" y="842" width="120" height="120"/><rect class="cls-1" x="602" y="842" width="120" height="120"/><rect class="cls-1" x="722" y="842" width="120" height="120"/><rect class="cls-1" x="842" y="842" width="120" height="120"/><rect class="cls-1" x="962" y="842" width="120" height="120"/><rect class="cls-1" x="1082" y="842" width="120" height="120"/><rect class="cls-1" x="1202" y="842" width="120" height="120"/><rect class="cls-1" x="1322" y="842" width="120" height="120"/><rect class="cls-1" x="1442" y="842" width="120" height="120"/><rect class="cls-1" x="1562" y="842" width="120" height="120"/><rect class="cls-1" x="1682" y="842" width="120" height="120"/><rect class="cls-1" x="1802" y="842" width="120" height="120"/><rect class="cls-1" x="2" y="962" width="120" height="120"/><rect class="cls-1" x="122" y="962" width="120" height="120"/><rect class="cls-1" x="242" y="962" width="120" height="120"/><rect class="cls-1" x="362" y="962" width="120" height="120"/><rect class="cls-1" x="482" y="962" width="120" height="120"/><rect class="cls-1" x="602" y="962" width="120" height="120"/><rect class="cls-1" x="722" y="962" width="120" height="120"/><rect class="cls-1" x="842" y="962" width="120" height="120"/><rect class="cls-1" x="962" y="962" width="120" height="120"/><rect class="cls-1" x="1082" y="962" width="120" height="120"/><rect class="cls-1" x="1202" y="962" width="120" height="120"/><rect class="cls-1" x="1322" y="962" width="120" height="120"/><rect class="cls-1" x="1442" y="962" width="120" height="120"/><rect class="cls-1" x="1562" y="962" width="120" height="120"/><rect class="cls-1" x="1682" y="962" width="120" height="120"/><rect class="cls-1" x="1802" y="962" width="120" height="120"/></g></g></svg>